# Aspose.3D Wavefront OBJ Exporter
# Copyright 2004-2023 Aspose Pty Ltd.
# File created: 01/30/2024 04:51:11

g Cube

#
# object Cube
#

v -269.2576 334.59714 11.284204
v -269.2576 61.167126 11.284224
v -287.88812 353.22766 -7.5146146
v -287.88812 42.536594 -7.514591
v 270.67154 334.59714 11.284285
v 270.67154 60.417416 11.284306
v 289.30206 353.22766 -7.5145273
v 289.30206 43.66888 -6.382215
v -287.88812 353.22766 1.4889146
v -287.88812 42.536594 1.4889381
v 289.30206 43.66888 0.35673568
v 289.30206 353.22766 1.4890018
v -269.2576 334.59714 3.650173
v -269.2576 61.167126 3.6501937
v 270.67154 61.167126 3.650275
v 270.67154 334.59714 3.6502545
v -3.3196871 55.83582 7.4418497
v -3.3196871 47.876827 7.44185
v -3.8520732 56.3682 5.616359
v -3.8520732 47.34443 5.61636
v 4.639311 55.83582 7.4418507
v 4.639311 47.876827 7.4418516
v 5.1716976 56.3682 5.6163607
v 5.1716976 47.34443 5.6163616
v 286.61627 53.86226 -2.0311794
v 286.61627 48.128345 -2.031179
v 286.61627 53.86226 -4.3676724
v 286.61627 48.128345 -4.367672
v 289.3871 53.40382 -2.2179875
v 289.3871 48.58679 -2.2179873
v 289.3871 53.40382 -4.180863
v 289.3871 48.58679 -4.180863
v 287.0474 56.921497 -2.416123
v 287.0474 54.298412 -2.4161227
v 287.0474 56.921497 -4.0332446
v 287.0474 54.298412 -4.033244
v 288.96512 56.71176 -2.5454159
v 288.96512 54.50815 -2.5454156
v 288.96512 56.71176 -3.903951
v 288.96512 54.50815 -3.9039507
v 287.0474 59.856934 -2.4161232
v 287.0474 57.233845 -2.416123
v 287.0474 59.856934 -4.0332446
v 287.0474 57.233845 -4.0332446
v 288.96512 59.647194 -2.545416
v 288.96512 57.443584 -2.5454159
v 288.96512 59.647194 -3.9039512
v 288.96512 57.443584 -3.903951
v 287.0474 62.79176 -2.4161234
v 287.0474 60.168674 -2.4161232
v 287.0474 62.79176 -4.033245
v 287.0474 60.16867 -4.0332446
v 288.96512 62.582024 -2.5454164
v 288.96512 60.37841 -2.545416
v 288.96512 62.582024 -3.9039514
v 288.96512 60.37841 -3.9039512
v 287.0474 65.7853 -2.4161236
v 287.0474 63.162212 -2.4161234
v 287.0474 65.7853 -4.033245
v 287.0474 63.162212 -4.033245
v 288.96512 65.57556 -2.5454164
v 288.96512 63.371952 -2.5454164
v 288.96512 65.57556 -3.9039516
v 288.96512 63.37195 -3.9039514
v 287.0474 68.77794 -2.4161239
v 287.0474 66.154854 -2.4161236
v 287.0474 68.77794 -4.0332456
v 287.0474 66.154854 -4.033245
v 288.96512 68.5682 -2.5454166
v 288.96512 66.364586 -2.5454166
v 288.96512 68.5682 -3.903952
v 288.96512 66.364586 -3.9039516
v -3.8520734 56.3682 7.4418497
v -3.8520734 47.34443 7.44185
v 5.1716976 47.34443 7.4418516
v 5.1716976 56.3682 7.4418507
v -2.9092615 55.425385 7.136088
v -2.9092615 48.287262 7.1360884
v 4.2288857 48.287262 7.1360893
v 4.2288857 55.425385 7.136089
v -84.59705 6.663208 29.471981
v -84.59705 0.20349917 29.471981
v -67.49697 6.6632013 -56.225037
v -67.49697 0.20349269 -56.225037
v 85.47257 6.663208 29.472002
v 85.47257 0.20349917 29.472002
v 68.37249 6.6632013 -56.22503
v 68.37249 0.20349269 -56.22503
v -287.88812 74.853294 1.4889356
v -287.88812 74.85329 -7.5145936
v 289.30206 73.72099 -6.382217
v 289.30206 73.72099 0.35673338
v -269.2576 89.60808 11.284222
v 270.67154 90.35779 11.284303
v -269.2576 89.60808 3.6501915
v 270.67154 89.60808 3.6502728
v 289.30206 42.536594 -7.514504
v 289.30206 42.536594 1.4890252
v 289.30206 74.85329 -7.5145063
v 289.30206 74.853294 1.4890227
v 288.20093 43.66888 -6.382215
v 288.20093 43.66888 0.3567355
v 288.20093 73.72099 -6.3822174
v 288.20093 73.72099 0.35673323
v -13.224769 58.949013 -1.9889342
v -24.826994 6.962685 1.6675036
v -12.366143 57.936565 -13.846028
v -24.82699 6.9626837 -17.502466
v 15.561497 58.949013 -1.9889297
v 27.163723 6.962685 1.6675162
v 14.702875 57.936565 -13.846024
v 27.163727 6.9626837 -17.502453
v -56.847477 9.2608185 -49.508076
v 57.722992 9.2608185 -49.50806
v -71.26695 9.260823 22.755022
v 72.14245 9.260823 22.755035
v -270.95627 335.88614 6.1928678
v 272.3702 335.88614 6.19295
v -270.95627 60.160122 6.1928883
v 272.3702 60.160122 6.1929703
v -3.319687 55.83582 7.1360874
v -3.319687 47.876827 7.1360884
v 4.639311 47.876827 7.1360893
v 4.639311 55.83582 7.136089
v -13.327941 52.126484 -13.846027
v -14.521766 51.11404 -1.9889337
v 16.858494 51.11404 -1.988929
v 15.664673 52.126484 -13.846024
v -13.224768 58.949013 -13.846028
v 15.561499 58.949013 -13.846024
v 16.858496 51.114037 -13.846023
v -14.521764 51.114037 -13.846027
v -12.366143 57.936565 -14.484087
v 14.702875 57.936565 -14.484083
v 15.664673 52.126484 -14.484082
v -13.327941 52.126484 -14.484087
# 136 vertices

vn 1 0 1.509958E-07
vn 1 0 1.509958E-07
vn 1 0 1.509958E-07
vn 1 0 1.509958E-07
vn -1.5099579E-07 7.5497894E-08 0.99999994
vn -1.5099579E-07 7.5497894E-08 0.99999994
vn -1.5099579E-07 7.5497894E-08 0.99999994
vn -1.5099579E-07 7.5497894E-08 0.99999994
vn -0.00069343456 -0.9987964 -0.04904403
vn -0.00069343456 -0.9987964 -0.04904403
vn -0.00069343456 -0.9987964 -0.04904403
vn -0.00069343456 -0.9987964 -0.04904403
vn -1.1399866E-14 -1 7.54979E-08
vn -1.1399866E-14 -1 7.54979E-08
vn -1.1399866E-14 -1 7.54979E-08
vn -1.1399866E-14 -1 7.54979E-08
vn 1.1399866E-14 1 -7.54979E-08
vn 1.1399866E-14 1 -7.54979E-08
vn 1.1399866E-14 1 -7.54979E-08
vn 1.1399866E-14 1 -7.54979E-08
vn 1.3364921E-07 -0.46536517 -0.8851187
vn 1.3364921E-07 -0.46536517 -0.8851187
vn 1.3364921E-07 -0.46536517 -0.8851187
vn 1.3364921E-07 -0.46536517 -0.8851187
vn 0.00031743819 0.47280097 -0.88116926
vn 0.00031743819 0.47280097 -0.88116926
vn 0.00031743819 0.47280097 -0.88116926
vn 0.00031743819 0.47280097 -0.88116926
vn 1 2.7212935E-13 3.7554585E-06
vn 1 2.7212935E-13 3.7554585E-06
vn 1 2.7212935E-13 3.7554585E-06
vn 1 2.7212935E-13 3.7554585E-06
vn 1.1399866E-14 1 -7.54979E-08
vn 1.1399866E-14 1 -7.54979E-08
vn 1.1399866E-14 1 -7.54979E-08
vn 1.1399866E-14 1 -7.54979E-08
vn -1 0 -1.509958E-07
vn -1 0 -1.509958E-07
vn -1 0 -1.509958E-07
vn -1 0 -1.509958E-07
vn 1 0 1.509958E-07
vn 1 0 1.509958E-07
vn 1 0 1.509958E-07
vn 1 0 1.509958E-07
vn -1.5099579E-07 7.5497894E-08 0.99999994
vn -1.5099579E-07 7.5497894E-08 0.99999994
vn -1.5099579E-07 7.5497894E-08 0.99999994
vn -1.5099579E-07 7.5497894E-08 0.99999994
vn -1 0 -1.509958E-07
vn -1 0 -1.509958E-07
vn -1 0 -1.509958E-07
vn -1 0 -1.509958E-07
vn -1 0 -1.509958E-07
vn -1 0 -1.509958E-07
vn -1 0 -1.509958E-07
vn -1 0 -1.509958E-07
vn -1.1399866E-14 -1 7.54979E-08
vn -1.1399866E-14 -1 7.54979E-08
vn -1.1399866E-14 -1 7.54979E-08
vn -1.1399866E-14 -1 7.54979E-08
vn 1.1399866E-14 1 -7.54979E-08
vn 1.1399866E-14 1 -7.54979E-08
vn 1.1399866E-14 1 -7.54979E-08
vn 1.1399866E-14 1 -7.54979E-08
vn 1 0 1.509958E-07
vn 1 0 1.509958E-07
vn 1 0 1.509958E-07
vn 1 0 1.509958E-07
vn -0.067266725 7.53269E-08 0.9977351
vn -0.067266725 7.53269E-08 0.9977351
vn -0.067266725 7.53269E-08 0.9977351
vn -0.067266725 7.53269E-08 0.9977351
vn -0.99999994 0 -1.5099579E-07
vn -0.99999994 0 -1.5099579E-07
vn -0.99999994 0 -1.5099579E-07
vn -0.99999994 0 -1.5099579E-07
vn -0.06726643 -7.53269E-08 -0.9977351
vn -0.06726643 -7.53269E-08 -0.9977351
vn -0.06726643 -7.53269E-08 -0.9977351
vn -0.06726643 -7.53269E-08 -0.9977351
vn -0.16323419 -0.98658735 4.9837595E-08
vn -0.16323419 -0.98658735 4.9837595E-08
vn -0.16323419 -0.98658735 4.9837595E-08
vn -0.16323419 -0.98658735 4.9837595E-08
vn -0.16323216 0.98658764 -9.913266E-08
vn -0.16323216 0.98658764 -9.913266E-08
vn -0.16323216 0.98658764 -9.913266E-08
vn -0.16323216 0.98658764 -9.913266E-08
vn 1 0 1.509958E-07
vn 1 0 1.509958E-07
vn 1 0 1.509958E-07
vn 1 0 1.509958E-07
vn -0.067267254 7.5326895E-08 0.99773496
vn -0.067267254 7.5326895E-08 0.99773496
vn -0.067267254 7.5326895E-08 0.99773496
vn -0.067267254 7.5326895E-08 0.99773496
vn -0.99999994 0 -1.5099579E-07
vn -0.99999994 0 -1.5099579E-07
vn -0.99999994 0 -1.5099579E-07
vn -0.99999994 0 -1.5099579E-07
vn -0.067266956 -7.5326895E-08 -0.99773496
vn -0.067266956 -7.5326895E-08 -0.99773496
vn -0.067266956 -7.5326895E-08 -0.99773496
vn -0.067266956 -7.5326895E-08 -0.99773496
vn -0.10871818 -0.9940726 5.8634406E-08
vn -0.10871818 -0.9940726 5.8634406E-08
vn -0.10871818 -0.9940726 5.8634406E-08
vn -0.10871818 -0.9940726 5.8634406E-08
vn -0.10871709 0.99407274 -9.146623E-08
vn -0.10871709 0.99407274 -9.146623E-08
vn -0.10871709 0.99407274 -9.146623E-08
vn -0.10871709 0.99407274 -9.146623E-08
vn 1 0 1.509958E-07
vn 1 0 1.509958E-07
vn 1 0 1.509958E-07
vn 1 0 1.509958E-07
vn -0.06726759 7.5326895E-08 0.99773496
vn -0.06726759 7.5326895E-08 0.99773496
vn -0.06726759 7.5326895E-08 0.99773496
vn -0.06726759 7.5326895E-08 0.99773496
vn -1 0 -1.509958E-07
vn -1 0 -1.509958E-07
vn -1 0 -1.509958E-07
vn -1 0 -1.509958E-07
vn -0.06726729 -7.5326895E-08 -0.99773496
vn -0.06726729 -7.5326895E-08 -0.99773496
vn -0.06726729 -7.5326895E-08 -0.99773496
vn -0.06726729 -7.5326895E-08 -0.99773496
vn -0.108715475 -0.9940729 5.8634836E-08
vn -0.108715475 -0.9940729 5.8634836E-08
vn -0.108715475 -0.9940729 5.8634836E-08
vn -0.108715475 -0.9940729 5.8634836E-08
vn -0.10871926 0.9940725 -9.146654E-08
vn -0.10871926 0.9940725 -9.146654E-08
vn -0.10871926 0.9940725 -9.146654E-08
vn -0.10871926 0.9940725 -9.146654E-08
vn 1 0 1.509958E-07
vn 1 0 1.509958E-07
vn 1 0 1.509958E-07
vn 1 0 1.509958E-07
vn -0.06726759 7.5326895E-08 0.99773496
vn -0.06726759 7.5326895E-08 0.99773496
vn -0.06726759 7.5326895E-08 0.99773496
vn -0.06726759 7.5326895E-08 0.99773496
vn -0.99999994 0 -1.5099579E-07
vn -0.99999994 0 -1.5099579E-07
vn -0.99999994 0 -1.5099579E-07
vn -0.99999994 0 -1.5099579E-07
vn -0.06726729 -7.5326895E-08 -0.99773496
vn -0.06726729 -7.5326895E-08 -0.99773496
vn -0.06726729 -7.5326895E-08 -0.99773496
vn -0.06726729 -7.5326895E-08 -0.99773496
vn -0.10871872 -0.9940726 5.8634324E-08
vn -0.10871872 -0.9940726 5.8634324E-08
vn -0.10871872 -0.9940726 5.8634324E-08
vn -0.10871872 -0.9940726 5.8634324E-08
vn -0.10872034 0.9940724 -9.146669E-08
vn -0.10872034 0.9940724 -9.146669E-08
vn -0.10872034 0.9940724 -9.146669E-08
vn -0.10872034 0.9940724 -9.146669E-08
vn 1 0 1.509958E-07
vn 1 0 1.509958E-07
vn 1 0 1.509958E-07
vn 1 0 1.509958E-07
vn -0.06726759 7.5326895E-08 0.99773496
vn -0.06726759 7.5326895E-08 0.99773496
vn -0.06726759 7.5326895E-08 0.99773496
vn -0.06726759 7.5326895E-08 0.99773496
vn -1 0 -1.509958E-07
vn -1 0 -1.509958E-07
vn -1 0 -1.509958E-07
vn -1 0 -1.509958E-07
vn -0.06726729 -7.5326895E-08 -0.99773496
vn -0.06726729 -7.5326895E-08 -0.99773496
vn -0.06726729 -7.5326895E-08 -0.99773496
vn -0.06726729 -7.5326895E-08 -0.99773496
vn -0.10871385 -0.99407303 5.863509E-08
vn -0.10871385 -0.99407303 5.863509E-08
vn -0.10871385 -0.99407303 5.863509E-08
vn -0.10871385 -0.99407303 5.863509E-08
vn -0.10871655 0.99407274 -9.146615E-08
vn -0.10871655 0.99407274 -9.146615E-08
vn -0.10871655 0.99407274 -9.146615E-08
vn -0.10871655 0.99407274 -9.146615E-08
vn 1 0 1.509958E-07
vn 1 0 1.509958E-07
vn 1 0 1.509958E-07
vn 1 0 1.509958E-07
vn -0.06726759 7.5326895E-08 0.99773496
vn -0.06726759 7.5326895E-08 0.99773496
vn -0.06726759 7.5326895E-08 0.99773496
vn -0.06726759 7.5326895E-08 0.99773496
vn -1 0 -1.509958E-07
vn -1 0 -1.509958E-07
vn -1 0 -1.509958E-07
vn -1 0 -1.509958E-07
vn -0.06726729 -7.5326895E-08 -0.99773496
vn -0.06726729 -7.5326895E-08 -0.99773496
vn -0.06726729 -7.5326895E-08 -0.99773496
vn -0.06726729 -7.5326895E-08 -0.99773496
vn -0.108714394 -0.99407303 5.863501E-08
vn -0.108714394 -0.99407303 5.863501E-08
vn -0.108714394 -0.99407303 5.863501E-08
vn -0.108714394 -0.99407303 5.863501E-08
vn -0.10871601 0.9940728 -9.146607E-08
vn -0.10871601 0.9940728 -9.146607E-08
vn -0.10871601 0.9940728 -9.146607E-08
vn -0.10871601 0.9940728 -9.146607E-08
vn 1.509958E-07 -7.54979E-08 -1
vn 1.509958E-07 -7.54979E-08 -1
vn 1.509958E-07 -7.54979E-08 -1
vn 1.509958E-07 -7.54979E-08 -1
vn 1.509958E-07 -7.54979E-08 -1
vn 1.509958E-07 -7.54979E-08 -1
vn 1.509958E-07 -7.54979E-08 -1
vn 1.509958E-07 -7.54979E-08 -1
vn 1.509958E-07 6.1856514E-07 -1
vn 1.509958E-07 6.1856514E-07 -1
vn 1.509958E-07 6.1856514E-07 -1
vn 1.509958E-07 6.1856514E-07 -1
vn 1.5099579E-07 -7.6953535E-07 -0.99999994
vn 1.5099579E-07 -7.6953535E-07 -0.99999994
vn 1.5099579E-07 -7.6953535E-07 -0.99999994
vn 1.5099579E-07 -7.6953535E-07 -0.99999994
vn 1.5099579E-07 -7.5497894E-08 -0.99999994
vn 1.5099579E-07 -7.5497894E-08 -0.99999994
vn 1.5099579E-07 -7.5497894E-08 -0.99999994
vn 1.5099579E-07 -7.5497894E-08 -0.99999994
vn -1.1399866E-14 -1 7.54979E-08
vn -1.1399866E-14 -1 7.54979E-08
vn -1.1399866E-14 -1 7.54979E-08
vn -1.1399866E-14 -1 7.54979E-08
vn 1 0 1.509958E-07
vn 1 0 1.509958E-07
vn 1 0 1.509958E-07
vn 1 0 1.509958E-07
vn 1.1399866E-14 1 -7.54979E-08
vn 1.1399866E-14 1 -7.54979E-08
vn 1.1399866E-14 1 -7.54979E-08
vn 1.1399866E-14 1 -7.54979E-08
vn 8.141169E-08 -1 7.549791E-08
vn 8.141169E-08 -1 7.549791E-08
vn 8.141169E-08 -1 7.549791E-08
vn 8.141169E-08 -1 7.549791E-08
vn -1.2222728E-07 7.54979E-08 1
vn -1.2222728E-07 7.54979E-08 1
vn -1.2222728E-07 7.54979E-08 1
vn -1.2222728E-07 7.54979E-08 1
vn 0.98066705 -1.4773697E-08 -0.1956834
vn 0.98066705 -1.4773697E-08 -0.1956834
vn 0.98066705 -1.4773697E-08 -0.1956834
vn 0.98066705 -1.4773697E-08 -0.1956834
vn 4.2965976E-08 -7.54979E-08 -1
vn 4.2965976E-08 -7.54979E-08 -1
vn 4.2965976E-08 -7.54979E-08 -1
vn 4.2965976E-08 -7.54979E-08 -1
vn -6.804171E-08 0.9326848 0.36069244
vn -6.804171E-08 0.9326848 0.36069244
vn -6.804171E-08 0.9326848 0.36069244
vn -6.804171E-08 0.9326848 0.36069244
vn -0.98066705 -1.4773677E-08 -0.19568343
vn -0.98066705 -1.4773677E-08 -0.19568343
vn -0.98066705 -1.4773677E-08 -0.19568343
vn -0.98066705 -1.4773677E-08 -0.19568343
vn -1 0 -1.509958E-07
vn -1 0 -1.509958E-07
vn -1 0 -1.509958E-07
vn -1 0 -1.509958E-07
vn 1 0 1.509958E-07
vn 1 0 1.509958E-07
vn 1 0 1.509958E-07
vn 1 0 1.509958E-07
vn -1 0 -1.509958E-07
vn -1 0 -1.509958E-07
vn -1 0 -1.509958E-07
vn -1 0 -1.509958E-07
vn 1 0 1.509958E-07
vn 1 0 1.509958E-07
vn 1 0 1.509958E-07
vn 1 0 1.509958E-07
vn -1 0 -1.509958E-07
vn -1 0 -1.509958E-07
vn -1 0 -1.509958E-07
vn -1 0 -1.509958E-07
vn -1 0 -1.509958E-07
vn -1 0 -1.509958E-07
vn -1 0 -1.509958E-07
vn -1 0 -1.509958E-07
vn -1 0 -1.509958E-07
vn -1 0 -1.509958E-07
vn -1 0 -1.509958E-07
vn -1 0 -1.509958E-07
vn -1 0 -1.509958E-07
vn -1 0 -1.509958E-07
vn -1 0 -1.509958E-07
vn -1 0 -1.509958E-07
vn -1 0 -1.509958E-07
vn -1 0 -1.509958E-07
vn -1 0 -1.509958E-07
vn -1 0 -1.509958E-07
vn -1.1399866E-14 -1 7.54979E-08
vn -1.1399866E-14 -1 7.54979E-08
vn -1.1399866E-14 -1 7.54979E-08
vn -1.1399866E-14 -1 7.54979E-08
vn 1.1399866E-14 1 -7.54979E-08
vn 1.1399866E-14 1 -7.54979E-08
vn 1.1399866E-14 1 -7.54979E-08
vn 1.1399866E-14 1 -7.54979E-08
vn 1.5099579E-07 -7.5497894E-08 -0.99999994
vn 1.5099579E-07 -7.5497894E-08 -0.99999994
vn 1.5099579E-07 -7.5497894E-08 -0.99999994
vn 1.5099579E-07 -7.5497894E-08 -0.99999994
vn 1.1399866E-14 1 -7.54979E-08
vn 1.1399866E-14 1 -7.54979E-08
vn 1.1399866E-14 1 -7.54979E-08
vn 1.1399866E-14 1 -7.54979E-08
vn 7.9205535E-08 -1 7.549791E-08
vn 7.9205535E-08 -1 7.549791E-08
vn 7.9205535E-08 -1 7.549791E-08
vn 7.9205535E-08 -1 7.549791E-08
vn -0.98657376 0.16331661 -1.6129856E-07
vn -0.98657376 0.16331661 -1.6129856E-07
vn -0.98657376 0.16331661 -1.6129856E-07
vn -0.98657376 0.16331661 -1.6129856E-07
vn -0.9865737 0.16331673 -1.6129856E-07
vn -0.9865737 0.16331673 -1.6129856E-07
vn -0.9865737 0.16331673 -1.6129856E-07
vn -0.9865737 0.16331673 -1.6129856E-07
vn -1.509958E-07 8.548173E-08 1
vn -1.509958E-07 8.548173E-08 1
vn -1.509958E-07 8.548173E-08 1
vn -1.509958E-07 8.548173E-08 1
vn 0.9865737 0.16331673 1.3663842E-07
vn 0.9865737 0.16331673 1.3663842E-07
vn 0.9865737 0.16331673 1.3663842E-07
vn 0.9865737 0.16331673 1.3663842E-07
vn 5.2761244E-08 1 -7.5497894E-08
vn 5.2761244E-08 1 -7.5497894E-08
vn 5.2761244E-08 1 -7.5497894E-08
vn 5.2761244E-08 1 -7.5497894E-08
vn -0.21155228 0.9764547 -0.042213216
vn -0.21155228 0.9764547 -0.042213216
vn -0.21155228 0.9764547 -0.042213216
vn -0.21155228 0.9764547 -0.042213216
vn 6.579419E-08 0.93268466 -0.3606929
vn 6.579419E-08 0.93268466 -0.3606929
vn 6.579419E-08 0.93268466 -0.3606929
vn 6.579419E-08 0.93268466 -0.3606929
vn 0.21155049 0.9764551 -0.042213153
vn 0.21155049 0.9764551 -0.042213153
vn 0.21155049 0.9764551 -0.042213153
vn 0.21155049 0.9764551 -0.042213153
vn -1.509958E-07 7.54979E-08 1
vn -1.509958E-07 7.54979E-08 1
vn -1.509958E-07 7.54979E-08 1
vn -1.509958E-07 7.54979E-08 1
vn -1.509958E-07 7.54979E-08 1
vn -1.509958E-07 7.54979E-08 1
vn -1.509958E-07 7.54979E-08 1
vn -1.509958E-07 7.54979E-08 1
vn -1.509958E-07 7.54979E-08 1
vn -1.509958E-07 7.54979E-08 1
vn 0.46536544 -6.682461E-08 -0.8851187
vn 0.46536544 -6.682461E-08 -0.8851187
vn 0.46536544 -6.682461E-08 -0.8851187
vn 0.46536544 -6.682461E-08 -0.8851187
vn 0.46536544 -6.682461E-08 -0.8851187
vn 0.46536544 -6.682461E-08 -0.8851187
vn -0.46536466 -6.6824626E-08 -0.8851191
vn -0.46536466 -6.6824626E-08 -0.8851191
vn -0.46536466 -6.6824626E-08 -0.8851191
vn -0.46536466 -6.6824626E-08 -0.8851191
vn -0.46536466 -6.6824626E-08 -0.8851191
vn -0.46536466 -6.6824626E-08 -0.8851191
vn 1.509958E-07 -7.54979E-08 -1
vn 1.509958E-07 -7.54979E-08 -1
vn 1.509958E-07 -7.54979E-08 -1
vn 1.509958E-07 -7.54979E-08 -1
vn 1.509958E-07 -7.54979E-08 -1
vn 1.509958E-07 -7.54979E-08 -1
vn 1.509958E-07 -7.54979E-08 -1
vn 1.509958E-07 -7.54979E-08 -1
vn 1.509958E-07 -7.54979E-08 -1
vn 1.509958E-07 -7.54979E-08 -1
vn 1.509958E-07 -7.54979E-08 -1
vn 1.509958E-07 -7.54979E-08 -1
vn 1.509958E-07 -7.54979E-08 -1
vn 1.509958E-07 -7.54979E-08 -1
vn 1.509958E-07 -7.54979E-08 -1
vn 1.509958E-07 -7.54979E-08 -1
vn 0.97382534 0.22729753 1.2988305E-07
vn 0.97382534 0.22729753 1.2988305E-07
vn 0.97382534 0.22729753 1.2988305E-07
vn 0.97382534 0.22729753 1.2988305E-07
vn -1.7766415E-07 0.08253352 0.99658835
vn -1.7766415E-07 0.08253352 0.99658835
vn -1.7766415E-07 0.08253352 0.99658835
vn -1.7766415E-07 0.08253352 0.99658835
vn -0.97382534 0.22729746 -1.6420401E-07
vn -0.97382534 0.22729746 -1.6420401E-07
vn -0.97382534 0.22729746 -1.6420401E-07
vn -0.97382534 0.22729746 -1.6420401E-07
vn 1.509958E-07 -7.54979E-08 -1
vn 1.509958E-07 -7.54979E-08 -1
vn 1.509958E-07 -7.54979E-08 -1
vn 1.509958E-07 -7.54979E-08 -1
vn 2.030169E-07 0.079701245 -0.99681884
vn 2.030169E-07 0.079701245 -0.99681884
vn 2.030169E-07 0.079701245 -0.99681884
vn 2.030169E-07 0.079701245 -0.99681884
vn 2.030169E-07 0.079701245 -0.99681884
vn 2.030169E-07 0.079701245 -0.99681884
vn 2.030169E-07 0.079701245 -0.99681884
vn 2.030169E-07 0.079701245 -0.99681884
vn 2.030169E-07 0.079701245 -0.99681884
vn 2.030169E-07 0.079701245 -0.99681884
vn 1.509958E-07 2.0385195E-07 -1
vn 1.509958E-07 2.0385195E-07 -1
vn 1.509958E-07 2.0385195E-07 -1
vn 1.509958E-07 2.0385195E-07 -1
vn 1.1399866E-14 1 -7.54979E-08
vn 1.1399866E-14 1 -7.54979E-08
vn 1.1399866E-14 1 -7.54979E-08
vn 1.1399866E-14 1 -7.54979E-08
vn -1.1399866E-14 -1 7.54979E-08
vn -1.1399866E-14 -1 7.54979E-08
vn -1.1399866E-14 -1 7.54979E-08
vn -1.1399866E-14 -1 7.54979E-08
vn 0.98657376 0.16331661 1.3663843E-07
vn 0.98657376 0.16331661 1.3663843E-07
vn 0.98657376 0.16331661 1.3663843E-07
vn 0.98657376 0.16331661 1.3663843E-07
# 432 vertex normals

vt 0.95312476 0.30468744 0
vt 0.88744706 0.093765885 0
vt 0.9320339 0.066036046 0
vt 0.89660203 0.06552781 0
vt 0.8960806 0.0647344 0
vt 0.9325104 0.06521815 0
vt 0.8909873 0.08903289 0
vt 0.93384683 0.063209444 0
vt 0.8857635 0.08676848 0
vt 0.884642 0.08706313 0
vt 0.89496565 0.06327891 0
vt 0.3425317 0.4027137 0
vt 0.9531248 0.30468747 0
vt 0.6652807 0.23892578 0
vt 0.6652807 0.4027137 0
vt 0.9428724 0.08716574 0
vt 0.94111145 0.0895786 0
vt 0.9442866 0.08758789 0
vt 0.8877499 0.08749461 0
vt 0.94160676 0.09050989 0
vt 0.8903104 0.08979201 0
vt 0.8879956 0.08750278 0
vt 0.89024943 0.089595556 0
vt 0.8885475 0.092825085 0
vt 0.943262 0.09273344 0
vt 0.3425317 0.23892578 0
vt 0.8887317 0.08678824 0
vt 0.8887657 0.086984605 0
vt 0.890665 0.08905047 0
vt 0.89082056 0.08902788 0
vt 0.27068612 0.260843 0
vt 0.28299004 0.42325467 0
vt 0.6053526 0.33958805 0
vt 0.50784916 0.5137672 0
vt 0.50784916 0.5137671 0
vt 0.5078491 0.5137671 0
vt 0.5078491 0.5137672 0
vt 0.43359366 0.9531249 0
vt 0.88876015 0.08658981 0
vt 0.88749814 0.08744934 0
vt 0.8903371 0.08998251 0
vt 0.944342 0.093842834 0
vt 0.8944279 0.06255993 0
vt 0.93433 0.06255993 0
vt 0.9460226 0.086922586 0
vt 0.94710267 0.08708957 0
vt 0.039099216 0.5098609 0
vt 0.4158723 0.3051371 0
vt 0.22393125 0.33220568 0
vt 0.32236257 0.260843 0
vt 0.95273364 0.23100358 0
vt 0.9531247 0.30468744 0
# 52 texture coords

s 1
f 89/18/1 10/20/2 4/17/3 90/16/4
f 11/21/5 92/19/6 104/22/7 102/23/8
f 6/24/9 2/25/10 14/42/11 15/2/12
f 3/3/13 7/4/14 12/5/15 9/6/16
f 97/7/17 4/17/18 10/20/19 98/41/20
f 5/11/21 1/8/22 9/6/23 12/5/24
f 2/25/25 6/24/26 98/41/27 10/20/28
f 94/9/29 6/24/30 15/2/31 96/10/32
f 1/8/33 5/11/34 16/43/35 13/44/36
f 93/45/37 1/8/38 13/44/39 95/46/40
f 73/47/41 74/47/42 20/47/43 19/47/44
f 19/47/45 20/47/46 24/47/47 23/47/48
f 23/47/49 24/47/50 75/47/51 76/47/52
f 18/47/53 17/47/54 121/47/55 122/47/56
f 19/47/57 23/47/58 76/47/59 73/47/60
f 24/47/61 20/47/62 74/47/63 75/47/64
f 25/48/65 26/48/66 28/48/67 27/48/68
f 27/48/69 28/48/70 32/48/71 31/48/72
f 31/48/73 32/48/74 30/48/75 29/48/76
f 29/48/77 30/48/78 26/48/79 25/48/80
f 27/48/81 31/48/82 29/48/83 25/48/84
f 32/48/85 28/48/86 26/48/87 30/48/88
f 33/49/89 34/49/90 36/49/91 35/49/92
f 35/49/93 36/49/94 40/49/95 39/49/96
f 39/49/97 40/49/98 38/49/99 37/49/100
f 37/49/101 38/49/102 34/49/103 33/49/104
f 35/49/105 39/49/106 37/49/107 33/49/108
f 40/49/109 36/49/110 34/49/111 38/49/112
f 41/50/113 42/50/114 44/50/115 43/50/116
f 43/50/117 44/50/118 48/50/119 47/50/120
f 47/50/121 48/50/122 46/50/123 45/50/124
f 45/50/125 46/50/126 42/50/127 41/50/128
f 43/50/129 47/50/130 45/50/131 41/50/132
f 48/50/133 44/50/134 42/50/135 46/50/136
f 49/31/137 50/31/138 52/31/139 51/31/140
f 51/31/141 52/31/142 56/31/143 55/31/144
f 55/31/145 56/31/146 54/31/147 53/31/148
f 53/31/149 54/31/150 50/31/151 49/31/152
f 51/31/153 55/31/154 53/31/155 49/31/156
f 56/31/157 52/31/158 50/31/159 54/31/160
f 57/32/161 58/32/162 60/32/163 59/32/164
f 59/32/165 60/32/166 64/32/167 63/32/168
f 63/32/169 64/32/170 62/32/171 61/32/172
f 61/32/173 62/32/174 58/32/175 57/32/176
f 59/32/177 63/32/178 61/32/179 57/32/180
f 64/32/181 60/32/182 58/32/183 62/32/184
f 65/33/185 66/33/186 68/33/187 67/33/188
f 67/33/189 68/33/190 72/33/191 71/33/192
f 71/33/193 72/33/194 70/33/195 69/33/196
f 69/33/197 70/33/198 66/33/199 65/33/200
f 67/33/201 71/33/202 69/33/203 65/33/204
f 72/33/205 68/33/206 66/33/207 70/33/208
f 17/47/209 18/47/210 74/47/211 73/47/212
f 22/47/213 21/47/214 76/47/215 75/47/216
f 21/47/217 17/47/218 73/47/219 76/47/220
f 18/47/221 22/47/222 75/47/223 74/47/224
f 80/34/225 79/35/226 78/36/227 77/37/228
f 22/47/229 18/47/230 122/47/231 123/47/232
f 21/47/233 22/47/234 123/47/235 124/47/236
f 17/47/237 21/47/238 124/47/239 121/47/240
f 86/38/241 82/38/242 84/38/243 88/38/244
f 86/38/245 85/38/246 81/38/247 82/38/248
f 88/38/249 87/38/250 85/38/251 86/38/252
f 84/38/253 83/38/254 87/38/255 88/38/256
f 81/38/257 85/38/258 116/38/259 115/38/260
f 82/38/261 81/38/262 83/38/263 84/38/264
f 2/25/265 93/45/266 95/46/267 14/42/268
f 5/11/269 94/9/270 96/10/271 16/43/272
f 7/4/273 99/39/274 100/40/275 12/5/276
f 9/6/277 89/18/278 90/16/279 3/3/280
f 11/21/281 8/30/282 97/7/283 98/41/284
f 8/30/285 91/27/286 99/39/287 97/7/288
f 92/19/289 11/21/290 98/41/291 100/40/292
f 91/27/293 92/19/294 100/40/295 99/39/296
f 103/28/297 101/29/298 102/23/299 104/22/300
f 8/30/301 11/21/302 102/23/303 101/29/304
f 92/19/305 91/27/306 103/28/307 104/22/308
f 91/27/309 8/30/310 101/29/311 103/28/312
f 105/13/313 109/13/314 130/13/315 129/13/316
f 110/13/317 106/13/318 108/13/319 112/13/320
f 125/52/321 107/13/322 133/13/323 136/52/324
f 126/13/325 105/13/326 129/13/327 132/13/328
f 127/51/329 109/51/330 105/51/331 126/51/332
f 131/13/333 130/13/334 109/13/335 127/13/336
f 115/38/337 116/38/338 114/38/339 113/38/340
f 83/38/341 81/38/342 115/38/343 113/38/344
f 87/38/345 83/38/346 113/38/347 114/38/348
f 85/38/349 87/38/350 114/38/351 116/38/352
f 117/12/353 119/26/354 120/14/355 118/15/356
f 3/3/357 90/16/358 4/17/359 97/7/360 99/39/361 7/4/362
f 1/8/363 93/45/364 2/25/365 10/20/366 89/18/367 9/6/368
f 6/24/369 94/9/370 5/11/371 12/5/372 100/40/373 98/41/374
f 77/37/375 78/36/376 122/36/377 121/36/378
f 79/35/379 80/34/380 124/36/381 123/36/382
f 80/34/383 77/37/384 121/36/385 124/36/386
f 78/36/387 79/35/388 123/36/389 122/36/390
f 112/13/391 131/13/392 127/13/393 110/13/394
f 110/51/395 127/51/396 126/51/397 106/51/398
f 106/13/399 126/13/400 132/13/401 108/13/402
f 128/1/403 111/13/404 130/13/405 131/13/406
f 125/52/407 128/1/408 131/13/409 112/13/410 108/13/411 132/13/412 129/13/413 130/13/414 111/13/415 107/13/416
f 136/52/417 133/13/418 134/13/419 135/1/420
f 107/13/421 111/13/422 134/13/423 133/13/424
f 128/1/425 125/52/426 136/52/427 135/1/428
f 111/13/429 128/1/430 135/1/431 134/13/432
#105 polygons

